<svg xmlns="http://www.w3.org/2000/svg" xmlns:xlink="http://www.w3.org/1999/xlink" version="1.1" width="1000" height="1000" viewBox="0 0 1000 1000" xml:space="preserve">
<desc>Created with Fabric.js 3.5.0</desc>
<defs>
</defs>
<rect x="0" y="0" width="100%" height="100%" fill="#ffffff"/>
<g transform="matrix(60.6061 0 0 60.6061 499.5003 499.5002)" id="914285">
<path style="stroke: none; stroke-width: 0; stroke-dasharray: none; stroke-linecap: butt; stroke-dashoffset: 0; stroke-linejoin: miter; stroke-miterlimit: 4; is-custom-font: none; font-file-url: none; fill: rgb(255,255,255); fill-rule: evenodd; opacity: 1;" vector-effect="non-scaling-stroke" transform=" translate(-7.4998, -8.5)" d="M 0 1.5 A 0.5 0.5 0 0 1 0.5 1 H 2 a 0.5 0.5 0 0 1 0.485 0.379 L 2.89 3 H 14.5 a 0.5 0.5 0 0 1 0.491 0.592 l -1.5 8 A 0.5 0.5 0 0 1 13 12 H 4 a 0.5 0.5 0 0 1 -0.491 -0.408 L 2.01 3.607 L 1.61 2 H 0.5 a 0.5 0.5 0 0 1 -0.5 -0.5 z M 3.102 4 l 1.313 7 h 8.17 l 1.313 -7 H 3.102 z M 5 12 a 2 2 0 1 0 0 4 a 2 2 0 0 0 0 -4 z m 7 0 a 2 2 0 1 0 0 4 a 2 2 0 0 0 0 -4 z m -7 1 a 1 1 0 1 0 0 2 a 1 1 0 0 0 0 -2 z m 7 0 a 1 1 0 1 0 0 2 a 1 1 0 0 0 0 -2 z" stroke-linecap="round"/>
</g>
</svg>